<svg width="55" height="16" viewBox="0 0 55 16" fill="none" xmlns="http://www.w3.org/2000/svg">
<path d="M1 7C0.447715 7 0 7.44772 0 8C0 8.55228 0.447715 9 1 9V7ZM54.2071 8.70711C54.5976 8.31658 54.5976 7.68342 54.2071 7.29289L47.8431 0.928932C47.4526 0.538408 46.8195 0.538408 46.4289 0.928932C46.0384 1.31946 46.0384 1.95262 46.4289 2.34315L52.0858 8L46.4289 13.6569C46.0384 14.0474 46.0384 14.6805 46.4289 15.0711C46.8195 15.4616 47.4526 15.4616 47.8431 15.0711L54.2071 8.70711ZM1 9H53.5V7H1V9Z" fill="#A4A4A4"/>
</svg>
