<?xml version="1.0" standalone="no"?>
<!DOCTYPE svg PUBLIC "-//W3C//DTD SVG 20010904//EN"
 "http://www.w3.org/TR/2001/REC-SVG-20010904/DTD/svg10.dtd">
<svg version="1.0" xmlns="http://www.w3.org/2000/svg"
 width="512.000000pt" height="512.000000pt" viewBox="0 0 512.000000 512.000000"
 preserveAspectRatio="xMidYMid meet">

<g transform="translate(0.000000,512.000000) scale(0.100000,-0.100000)"
fill="#000000" stroke="none">
<path d="M752 4201 c-29 -10 -64 -29 -79 -42 -14 -13 -93 -107 -176 -209 -162
-199 -326 -389 -418 -485 -83 -86 -98 -139 -60 -213 24 -47 286 -304 776 -762
794 -741 1099 -1051 1433 -1453 52 -61 88 -95 122 -112 59 -30 132 -33 171 -7
15 9 123 104 240 211 118 107 360 323 539 480 1290 1137 1781 1587 1810 1660
18 45 -1 142 -38 190 -122 162 -609 683 -664 712 -73 38 -127 23 -213 -60 -33
-32 -148 -134 -255 -227 -107 -93 -371 -326 -585 -519 -215 -192 -475 -423
-578 -513 l-188 -163 -147 141 c-177 170 -603 561 -997 915 -466 420 -509 457
-533 466 -37 14 -102 10 -160 -10z m484 -728 c501 -447 708 -638 979 -903 203
-198 225 -218 288 -243 76 -30 113 -33 160 -13 40 18 324 263 862 745 231 207
507 452 613 545 l193 168 83 -89 c115 -122 296 -327 296 -334 0 -7 -222 -218
-420 -400 -124 -114 -688 -614 -1075 -955 -132 -116 -359 -318 -504 -448 -145
-130 -267 -233 -271 -229 -346 409 -625 692 -1365 1383 -214 201 -449 424
-523 495 l-133 130 108 125 c59 69 152 181 207 248 54 67 102 122 106 122 4 0
183 -156 396 -347z"/>
</g>
</svg>
